PathFileType	4	(X/Y/Z)	pose_F01_0-91.trc
DataRate	CameraRate	NumFrames	NumMarkers	Units	OrigDataRate	OrigDataStartFrame	OrigNumFrames
30	30	13	21	m	30	30	91
Frame#	Time	CHip			RHip			RKnee			RAnkle			RBigToe			RSmallToe			RHeel			LHip			LKnee			LAnkle			LBigToe			LSmallToe			LHeel			Neck			Nose			RShoulder			RElbow			RWrist			LShoulder			LElbow			LWrist			
		X1	Y1	Z1	X2	Y2	Z2	X3	Y3	Z3	X4	Y4	Z4	X5	Y5	Z5	X6	Y6	Z6	X7	Y7	Z7	X8	Y8	Z8	X9	Y9	Z9	X10	Y10	Z10	X11	Y11	Z11	X12	Y12	Z12	X13	Y13	Z13	X14	Y14	Z14	X15	Y15	Z15	X16	Y16	Z16	X17	Y17	Z17	X18	Y18	Z18	X19	Y19	Z19	X20	Y20	Z20	X21	Y21	Z21	
30	1.0	-0.27097442840036046	1.8854964619837586	-0.6241101666828962	-0.28766145056205583	1.8839709863114398	-0.5601718866603215	-0.29224650826416393	1.7446672110318064	-0.5378653922777543													-0.25612832611232245	1.8869928025338092	-0.6888776006396015	-0.2603550582140314	1.7442177632679339	-0.6775425919926502													-0.2768287546824318	2.050113102825141	-0.6512040234992249	-0.2577103702656743	2.1150535518569127	-0.641155938194193	-0.30000690347574555	2.044551874170246	-0.5655812896261143	-0.3364168213437761	1.974963313879296	-0.4791603318580007	-0.324470522055	1.9003982889074922	-0.42790371354446133	-0.2498050061348278	2.057504366796703	-0.7421210098523011	-0.2276208653000911	1.9931601318543493	-0.7666815680740572	-1.330478037633708	1.8365047128357115	0.4497509365545917
31	1.0333333333333334	-0.26764651583405286	1.897126784938172	-0.6329226720686211	-0.2815396168270566	1.8920817840510857	-0.5679926302898568	-0.29224650826416393	1.7446672110318064	-0.5378653922777543													-0.25382183068424435	1.8967488089790314	-0.6922813443138534	-0.2559796388048339	1.750289257270138	-0.6824692384295276													-0.2733944447441394	2.053829116647005	-0.6594690715058499	-0.2565109444743188	2.1195642608764125	-0.6472593949453064	-0.29759506378870176	2.047532786297091	-0.5760411288332472	-0.3338613788398737	2.0107405679639787	-0.47241949240863906	-0.3208040557606793	1.9523816056602594	-0.44330347920766866	-0.24749082747621512	2.060078244145539	-0.7446097420998824	-0.2216413832802985	2.012301907960571	-0.7636714856516773	-1.054383768659519	1.9012519001837216	0.16948151776302395
32	1.0666666666666667	-0.2685549172613117	1.8922221518542723	-0.6357771335893868	-0.2823353425921602	1.8886896455929474	-0.5707661008974626	-0.28752514502909887	1.7441220989380486	-0.5206382186032998													-0.2526000291865319	1.8930262689037871	-0.6974431360143944	-0.2540690780859271	1.7452219223546874	-0.6881642854008377													-0.27634167667560217	2.055378043368831	-0.660161304264071	-0.25703943304410914	2.122411085456755	-0.6586873080713408	-0.29860860394156014	2.0478387241043676	-0.5789455260078736	-0.3379987226871525	2.0278158566041187	-0.4628253053624393	-0.3171375894663586	2.0043649224130267	-0.458703244870876	-0.25051033206689693	2.062354239559008	-0.745645484828703	-0.21566190126050594	2.031443684066793	-0.7606614032292975	-0.7782894996853301	1.9659990875317317	-0.1107879010285438
33	1.1	-0.26784953338227646	1.8985350097225828	-0.6361835289713901	-0.28267060172508784	1.895856733500396	-0.5746140100269425	-0.2828037817940338	1.7435769868442905	-0.5034110449288453													-0.2517540018034894	1.9002407483921713	-0.6978277290812355	-0.25515036754292075	1.7431454311325878	-0.684132814168397													-0.2795535118839379	2.0582435769518717	-0.6530171762500149	-0.25368099535184213	2.1254440789709137	-0.6671368745121581	-0.29954409976271795	2.0511601050152257	-0.5741570586406943	-0.3421360665344312	2.0448911452442586	-0.4532311183162395	-0.3134711231720379	2.0563482391657937	-0.47410301053408327	-0.2553095970267798	2.0630295543016794	-0.733086266333267	-0.20968241924071335	2.0505854601730147	-0.7576513208069177	-0.5021952307111412	2.030746274879742	-0.39105731982011155
34	1.1333333333333333	-0.27079836129541746	1.8949555626781271	-0.6251589666642783	-0.28644484821964405	1.8920859222831372	-0.5581608517192445	-0.27808241855896876	1.7430318747505327	-0.4861838712543908													-0.2560120013721878	1.8964920806487267	-0.6898592160982251	-0.25623165699991435	1.7410689399104882	-0.6801013429359564													-0.2798003734311922	2.063411898847189	-0.6465162057656059	-0.2496650614908748	2.1232684703410016	-0.6725727507242802	-0.3010161140971714	2.0614010899401407	-0.5650022490409936	-0.34627341038170995	2.0619664338843986	-0.4436369312700398	-0.3098046568777172	2.108331555918561	-0.4895027761972906	-0.25283739488665147	2.0660373906004925	-0.7253258804956783	-0.20370293722092075	2.0697272362792365	-0.7546412383845379	-0.22610096173695227	2.095493462227752	-0.6713267386116794
35	1.1666666666666667	-0.2778321404869426	1.8887689907035665	-0.6094300645595957	-0.29003370524732636	1.8864136015345239	-0.5497806255634052	-0.2783766453294563	1.7383401089577613	-0.4676284430685874													-0.2611158424984812	1.8938136474997567	-0.6767487735451031	-0.257312946456908	1.7389924486883885	-0.6760698717035156													-0.2739920067823114	2.0537403773240346	-0.6344856319146814	-0.2457951135322788	2.1196101863096595	-0.6688130422435165	-0.2988009882402027	2.0469836282404246	-0.5544997668718885	-0.3355343003499615	2.0601886616121887	-0.4134368341678906	-0.3125283873655286	2.0988613442717488	-0.5200872928886159	-0.24545167523167324	2.063223878920153	-0.7194286374349252	-0.199608053224177	2.044787912749782	-0.7345746823889332	-0.2084766506736292	2.0825415981841977	-0.6973827065442094
36	1.2	-0.28333428587238896	1.8728259621958008	-0.5947395079777618	-0.2962437404808475	1.8705678670950403	-0.5296184974811525	-0.28185437744141456	1.7328418383714825	-0.45876421845947585													-0.2690633739042277	1.8764084345071144	-0.6596740734415493	-0.24937293204034114	1.7305657628246731	-0.6668222321987436													-0.2700291004787622	2.0388302033539505	-0.6268593929435115	-0.24670462269888077	2.1000804941136915	-0.6679569048617142	-0.2863223120968354	2.038740098541246	-0.5398224309988359	-0.28796294188742266	2.0395265378042224	-0.40183216481475836	-0.2992501907430884	2.0771252787486185	-0.5074554786315607	-0.2513995746144798	2.0374873527076907	-0.7138842689872598	-0.7470573417215542	1.9483396369185906	-0.1688112753408939	-0.21422076396164852	2.0096231423246014	-0.7057352605843985
37	1.2333333333333334	-0.29485247904773115	1.8402489702443479	-0.5796251428135842	-0.30261143017815406	1.8389502406078462	-0.5155396229266611	-0.28248065589314275	1.7124321405614364	-0.44684850302760126													-0.2809309116990279	1.8442314387292829	-0.6447898513181962	-0.2474938084520368	1.7151675423713824	-0.659152340055138													-0.2720041593195757	2.002911771170241	-0.6061209425206218	-0.24080813227624145	2.0637449117228432	-0.6491816535577468	-0.28913415219645616	2.0014259170781385	-0.5215123622620614	-0.2741171560908361	1.9698201925609569	-0.41617253396097176	-0.45692384881980463	1.8898807119523946	-1.183937995708095	-0.25176351345589837	2.0042592113250133	-0.6876741349160443	-1.2945066302189316	1.851891361087399	0.39695213170714544	-0.21996487724966787	1.9367046864650053	-0.7140878146245877
38	1.2666666666666666	-0.2998986997734152	1.8284192616166948	-0.5599937416289406	-0.30820031751492855	1.8219070527210401	-0.4983188125906827	-0.26927587704396394	1.6966510868204658	-0.4551827105617753													-0.2885334738208467	1.8316873210118896	-0.6230628314534362	-0.2503042487579904	1.7047896229375525	-0.6468604930673985													-0.27072387507571416	1.9788922835962985	-0.57857241884446	-0.23538889591301917	2.025675414419089	-0.6297332121783213	-0.2832641745330463	1.9747233565365065	-0.48868340909514535	-0.26027137029424957	1.900113847317691	-0.4305129031071851	-0.34986004321139974	1.8394261293431367	-0.806723154645977	-0.2579496278572387	1.9816956096187635	-0.6654830512191572	-0.24643801951723698	1.9201260209293334	-0.6892024886880985	-0.2257089905376872	1.8637862306054092	-0.7224403686647768
39	1.3	-0.29849114062461946	1.8175998835010614	-0.5466695232162906	-0.30996324114168583	1.811771283828505	-0.485929917847549	-0.276127438195636	1.691997346480981	-0.47414612117197147													-0.2880156706746887	1.8252731180095683	-0.6136054190460798	-0.252532600070706	1.7096566212935658	-0.6407162771623448													-1.5609609585889281	1.8715806794978702	0.8200106970552403	-0.2321136941954242	1.994570840557563	-0.5923936244713477	-0.2800587311645443	1.952654416510728	-0.465692288692988	-0.2652192884277691	1.872541523696126	-0.4149496360485	-0.24279623760299482	1.7889715467338787	-0.429508313583859	-0.26063080768784336	1.9643222328319547	-0.6434200381708739	-0.2491731635224249	1.9284003680283108	-0.6849118287088878	-0.23168332214256745	1.8706853066171125	-0.7119768291181653
40	1.3333333333333333	-0.29743722236294456	1.8168042323370561	-0.5347032349915659	-0.30438912435143933	1.8086873227670095	-0.4694849262544213	-0.276127438195636	1.691997346480981	-0.47414612117197147													-0.288506030717335	1.8239463200742723	-0.5962691936434853	-0.25476095138342164	1.7145236196495788	-0.634572061257291													-1.579319453461016	1.8639525416984948	0.8577227492494419	-0.22639581136005996	1.9782665669375947	-0.5430961260381043	-0.28188984633351744	1.947374911585932	-0.43920213758128146	-0.2842667677655155	1.8559805304400747	-0.4262664475918995	-0.26953086548369226	1.7704992271774223	-0.463646814208781	-0.27171041171849497	1.960105913865238	-0.614844345443974	-0.25190830752761284	1.9366747151272885	-0.680621168729677	-0.2376576537474477	1.8775843826288159	-0.7015132895715538
41	1.3666666666666667	-0.2979268488382416	1.8289034957151065	-0.5133972086291233	-0.3048610030701195	1.8185061933237467	-0.4563140343624389	-0.276127438195636	1.691997346480981	-0.47414612117197147													-0.28695800275548283	1.83856266826509	-0.5875456417782403	-0.25698930269613723	1.7193906180055918	-0.6284278453522374													-1.6175317740369461	1.8733315096852532	0.9238809250422608	-0.23573434390559667	1.9865215196492887	-0.5494885249867368	-0.28483729434495325	1.9584141295980129	-0.4269726993019646	-0.2886067253614842	1.8673375888184442	-0.4262194446392046	-0.2700904921798461	1.7925281026534985	-0.4741402579366239	-0.2753380986042837	1.976360389525506	-0.6040219760652599	-0.25464345153280077	1.9449490622262662	-0.6763305087504663	-0.24363198535232797	1.8844834586405192	-0.6910497500249423
42	1.4	-0.29646681132395036	1.8454383478824923	-0.5064514626544041	-0.3054066070925733	1.836635859985087	-0.44575901841730414	-0.276127438195636	1.691997346480981	-0.47414612117197147													-0.2854099747936307	1.8531790164559079	-0.5788220899129952	-0.2592176540088529	1.724257616361605	-0.6222836294471836													-0.2810605738283895	1.991051075108313	-0.5045248341976686	-0.2346628404587338	2.0111454510143614	-0.5251246530590002	-0.28756925744041817	1.9838813211690387	-0.409193187967187	-0.29544791326046443	1.8984678450170986	-0.3818882809322378	-0.2689145876094407	1.8288424677910042	-0.43924383545882123	-0.26959165605941365	1.9981194416257817	-0.5990105316306389	-0.2573785955379887	1.9532234093252436	-0.6720398487712556	-0.24960631695720825	1.8913825346522226	-0.6805862104783308
